<?xml version="1.0" encoding="utf-8"?>
<!-- Generator: Adobe Illustrator 25.1.0, SVG Export Plug-In . SVG Version: 6.00 Build 0)  -->
<svg version="1.1" id="Layer_1" xmlns="http://www.w3.org/2000/svg" xmlns:xlink="http://www.w3.org/1999/xlink" x="0px" y="0px"
	 viewBox="0 0 100 100" style="enable-background:new 0 0 100 100;" xml:space="preserve">
<style type="text/css">
	.st0{fill:url(#SVGID_1_);}
</style>
<linearGradient id="SVGID_1_" gradientUnits="userSpaceOnUse" x1="31.9823" y1="51.5979" x2="63.1199" y2="51.5979" gradientTransform="matrix(0.9328 -0.3603 0.3603 0.9328 -14.9009 20.1899)">
	<stop  offset="0" style="stop-color:#5F2C82"/>
	<stop  offset="1" style="stop-color:#49A09D"/>
</linearGradient>
<path class="st0" d="M64.48,58.31c-4.61-1.3-8.59-4.64-10.47-9.42c-1.81-4.8-1.12-9.94,1.42-13.99c0.58-0.92,1.25-1.78,2.01-2.58
	c-1.09-0.38-2.2-0.67-3.34-0.85c-3.18-0.51-6.52-0.23-9.73,1.01C34.72,36.2,29.89,47.02,33.5,56.69l-0.01,0
	c0.01,0.03,0.02,0.06,0.03,0.09c0.01,0.04,0.03,0.08,0.04,0.11l0.01,0c3.83,9.58,14.69,14.34,24.33,10.62
	c3.21-1.24,5.88-3.28,7.89-5.79c0.72-0.9,1.36-1.86,1.9-2.87C66.62,58.79,65.54,58.61,64.48,58.31z M56.81,64.67
	c-8.1,3.13-17.24-0.89-20.41-8.96c-3.06-8.1,1-17.21,9.1-20.33c2.21-0.86,4.5-1.16,6.73-1.01c-2.49,4.64-3.06,10.27-1.09,15.56
	l-0.01,0c0.01,0.03,0.02,0.06,0.03,0.09c0.01,0.04,0.03,0.08,0.04,0.11l0.01,0c2.1,5.25,6.31,9.03,11.27,10.79
	C60.92,62.5,59.03,63.81,56.81,64.67z"/>
</svg>
