<?xml version="1.0" encoding="utf-8"?>
<!-- Generator: Adobe Illustrator 25.1.0, SVG Export Plug-In . SVG Version: 6.00 Build 0)  -->
<svg version="1.1" id="Layer_1" xmlns="http://www.w3.org/2000/svg" xmlns:xlink="http://www.w3.org/1999/xlink" x="0px" y="0px"
	 viewBox="0 0 100 100" style="enable-background:new 0 0 100 100;" xml:space="preserve">
<style type="text/css">
	.st0{fill:url(#SVGID_1_);}
</style>
<linearGradient id="SVGID_1_" gradientUnits="userSpaceOnUse" x1="35.1608" y1="50.0719" x2="58.2466" y2="50.0719">
	<stop  offset="0" style="stop-color:#5F2C82"/>
	<stop  offset="1" style="stop-color:#49A09D"/>
</linearGradient>
<path class="st0" d="M56.16,59.37c-2.84-2.13-4.7-5.5-4.72-9.31c0.03-3.8,1.88-7.17,4.72-9.29c0.65-0.48,1.34-0.9,2.08-1.25
	c-0.65-0.55-1.34-1.05-2.08-1.48c-2.06-1.2-4.45-1.9-7-1.9c-7.67,0-13.9,6.19-13.99,13.84h-0.01c0,0.02,0,0.05,0,0.07
	c0,0.03,0,0.06,0,0.09h0.01c0.09,7.65,6.33,13.84,13.99,13.84c2.55,0,4.94-0.7,7-1.9c0.74-0.43,1.44-0.92,2.08-1.48
	C57.51,60.28,56.81,59.86,56.16,59.37z M49.16,61.72c-6.44,0-11.68-5.22-11.72-11.65c0.05-6.42,5.29-11.63,11.72-11.63
	c1.76,0,3.42,0.4,4.92,1.1c-2.96,2.54-4.86,6.28-4.91,10.47h-0.01c0,0.02,0,0.05,0,0.07c0,0.03,0,0.06,0,0.09h0.01
	c0.05,4.19,1.95,7.93,4.91,10.47C52.58,61.32,50.92,61.72,49.16,61.72z"/>
</svg>
