<?xml version="1.0" encoding="utf-8"?>
<!-- Generator: Adobe Illustrator 25.1.0, SVG Export Plug-In . SVG Version: 6.00 Build 0)  -->
<svg version="1.1" id="Layer_1" xmlns="http://www.w3.org/2000/svg" xmlns:xlink="http://www.w3.org/1999/xlink" x="0px" y="0px"
	 viewBox="0 0 100 100" style="enable-background:new 0 0 100 100;" xml:space="preserve">
<style type="text/css">
	.st0{fill:url(#SVGID_1_);}
	.st1{fill:url(#SVGID_2_);}
	.st2{fill:url(#SVGID_3_);}
	.st3{fill:url(#SVGID_4_);}
	.st4{fill:url(#SVGID_5_);}
	.st5{fill:#FFE888;}
</style>
<g>
	
		<linearGradient id="SVGID_1_" gradientUnits="userSpaceOnUse" x1="7.8029" y1="46.5129" x2="46.7246" y2="85.4346" gradientTransform="matrix(1 0 0 -1 0 102)">
		<stop  offset="0" style="stop-color:#5F2C82"/>
		<stop  offset="1" style="stop-color:#49A09D"/>
	</linearGradient>
	<rect x="39.22" y="19.37" class="st0" width="2" height="7.4"/>
	
		<linearGradient id="SVGID_2_" gradientUnits="userSpaceOnUse" x1="4.208" y1="50.108" x2="43.1297" y2="89.0296" gradientTransform="matrix(1 0 0 -1 0 102)">
		<stop  offset="0" style="stop-color:#5F2C82"/>
		<stop  offset="1" style="stop-color:#49A09D"/>
	</linearGradient>
	<polygon class="st1" points="31.26,30.07 26.03,24.84 24.62,26.25 29.85,31.48 	"/>
	
		<linearGradient id="SVGID_3_" gradientUnits="userSpaceOnUse" x1="16.493" y1="37.8229" x2="55.4146" y2="76.7447" gradientTransform="matrix(1 0 0 -1 0 102)">
		<stop  offset="0" style="stop-color:#5F2C82"/>
		<stop  offset="1" style="stop-color:#49A09D"/>
	</linearGradient>
	<polygon class="st2" points="55.83,26.25 54.42,24.84 49.19,30.07 50.6,31.48 	"/>
	
		<linearGradient id="SVGID_4_" gradientUnits="userSpaceOnUse" x1="8.3079" y1="46.0079" x2="47.2296" y2="84.9296" gradientTransform="matrix(1 0 0 -1 0 102)">
		<stop  offset="0" style="stop-color:#5F2C82"/>
		<stop  offset="1" style="stop-color:#49A09D"/>
	</linearGradient>
	<rect x="19.15" y="40.45" class="st3" width="7.4" height="2"/>
	
		<linearGradient id="SVGID_5_" gradientUnits="userSpaceOnUse" x1="28.0398" y1="26.2761" x2="66.9615" y2="65.1978" gradientTransform="matrix(1 0 0 -1 0 102)">
		<stop  offset="0" style="stop-color:#5F2C82"/>
		<stop  offset="1" style="stop-color:#49A09D"/>
	</linearGradient>
	<path class="st4" d="M79.74,56.36c0.73-1.31,1.11-2.78,1.11-4.29c0-4.86-3.96-8.82-8.82-8.82c-0.56,0-1.12,0.06-1.69,0.17
		c-4.33-5.2-10.65-8.17-17.43-8.17c-0.68,0-1.36,0.04-2.03,0.1c-2.12-3.69-6.1-6.19-10.66-6.19c-6.73,0-12.21,5.44-12.29,12.16
		h-0.01c0,0.02,0,0.04,0,0.06c0,0.03,0,0.05,0,0.08h0.01c0.04,3.38,1.45,6.44,3.71,8.64c-0.08,0.22-0.18,0.44-0.25,0.66
		C24.84,51.08,19.6,56.5,19.6,63.13c0,6.82,5.55,12.38,12.38,12.38c1.82,0,3.62-0.4,5.26-1.17c4.24,4.07,9.78,6.3,15.68,6.3
		c9.51,0,17.94-5.89,21.25-14.74c0.21,0.02,0.4,0.04,0.6,0.04c3.35,0,6.09-2.73,6.09-6.09C80.85,58.6,80.46,57.39,79.74,56.36z
		 M29.93,41.38c0.04-5.64,4.64-10.22,10.29-10.22c3.53,0,6.65,1.79,8.51,4.5C41.7,37,35.63,41.64,32.5,48.09
		C30.92,46.3,29.95,43.95,29.93,41.38z M77.78,57.11c0.69,0.76,1.07,1.73,1.07,2.73c0,2.25-1.83,4.09-4.09,4.09
		c-0.3,0-0.63-0.05-1.01-0.15l-0.9-0.23l-0.29,0.89c-2.81,8.49-10.7,14.19-19.64,14.19c-5.6,0-10.85-2.21-14.77-6.21l-0.53-0.54
		l-0.66,0.36c-1.52,0.83-3.23,1.27-4.97,1.27c-5.72,0-10.38-4.65-10.38-10.38s4.65-10.38,10.38-10.38l0,0l0.89,0.02l0.22-0.73
		c0.06-0.2,0.14-0.39,0.2-0.59c0.22-0.66,0.47-1.3,0.75-1.93c2.85-6.37,8.81-10.93,15.69-12.02c0.67-0.11,1.36-0.17,2.05-0.21
		c0.38-0.02,0.75-0.05,1.14-0.05c6.38,0,12.3,2.88,16.26,7.91l0.41,0.52l0.64-0.17c4.48-1.23,8.63,2.22,8.63,6.57
		c0,1.36-0.4,2.68-1.16,3.81l-0.44,0.65L77.78,57.11z"/>
</g>
<path class="st5" d="M29.93,41.38c0.04-5.64,4.64-10.22,10.29-10.22c3.53,0,6.65,1.79,8.51,4.5C41.7,37,35.63,41.64,32.5,48.09
	C30.92,46.3,29.95,43.95,29.93,41.38z"/>
</svg>
