<?xml version="1.0" encoding="utf-8"?>
<!-- Generator: Adobe Illustrator 25.1.0, SVG Export Plug-In . SVG Version: 6.00 Build 0)  -->
<svg version="1.1" id="Layer_1" xmlns="http://www.w3.org/2000/svg" xmlns:xlink="http://www.w3.org/1999/xlink" x="0px" y="0px"
	 viewBox="0 0 100 100" style="enable-background:new 0 0 100 100;" xml:space="preserve">
<style type="text/css">
	.st0{fill:url(#SVGID_1_);}
	.st1{fill:#AAA5E5;}
</style>
<linearGradient id="SVGID_1_" gradientUnits="userSpaceOnUse" x1="16.66" y1="51.99" x2="83.34" y2="51.99" gradientTransform="matrix(1 0 0 -1 0 102)">
	<stop  offset="0" style="stop-color:#5F2C82"/>
	<stop  offset="1" style="stop-color:#49A09D"/>
</linearGradient>
<path class="st0" d="M81.27,37.11c-3.08,0.44-6.33-0.5-8.72-2.85c-2.34-2.38-3.28-5.62-2.84-8.7c0.1-0.7,0.27-1.4,0.52-2.07
	c-0.75,0.06-1.48,0.18-2.21,0.38c-2.03,0.54-3.94,1.58-5.53,3.17c-1.72,1.72-2.82,3.84-3.3,6.06c-2.86-1.27-5.98-1.95-9.22-1.95
	c-9.72,0-18.46,6.34-21.52,15.51c-6.55,0.31-11.79,5.74-11.79,12.36c0,6.82,5.55,12.38,12.38,12.38c1.82,0,3.62-0.4,5.26-1.17
	c4.24,4.07,9.78,6.3,15.68,6.3c9.51,0,17.94-5.89,21.25-14.74c0.21,0.02,0.4,0.03,0.6,0.03c3.36,0,6.09-2.73,6.09-6.09
	c0-1.24-0.39-2.45-1.11-3.48c0.73-1.31,1.11-2.78,1.11-4.29c0-0.67-0.08-1.33-0.23-1.96c0.75-0.47,1.45-1.03,2.1-1.68
	c1.59-1.58,2.63-3.5,3.17-5.53c0.19-0.73,0.32-1.47,0.38-2.21C82.66,36.83,81.97,37.01,81.27,37.11z M74.84,52.99
	c0.69,0.76,1.07,1.73,1.07,2.73c0,2.25-1.83,4.09-4.09,4.09c-0.31,0-0.63-0.05-1.01-0.15l-0.9-0.23l-0.29,0.89
	c-2.81,8.49-10.7,14.19-19.64,14.19c-5.6,0-10.85-2.21-14.78-6.21l-0.53-0.54L34,68.12c-1.51,0.83-3.23,1.27-4.97,1.27
	c-5.72,0-10.38-4.65-10.38-10.38s4.65-10.38,10.37-10.38l0,0l0.9,0.01l0.21-0.72c2.59-8.71,10.74-14.79,19.83-14.79
	c3.16,0,6.2,0.71,8.95,2.03c0.69,0.33,1.35,0.7,2,1.1c2,1.25,3.8,2.85,5.31,4.77l0.41,0.52l0.64-0.18c0.61-0.17,1.22-0.25,1.81-0.25
	c2.72,0,5.06,1.6,6.15,3.9c0.29,0.6,0.49,1.25,0.58,1.93c0.05,0.32,0.08,0.65,0.08,0.99c0,1.36-0.4,2.68-1.16,3.81l-0.44,0.65
	L74.84,52.99z M78.38,42.91c-0.43,0.43-0.9,0.81-1.38,1.15c-1.44-2.91-4.44-4.92-7.9-4.92c-0.56,0-1.12,0.06-1.69,0.17
	c-1.81-2.17-3.96-3.94-6.35-5.28c0.34-2.04,1.29-4,2.86-5.58c1.09-1.09,2.37-1.88,3.74-2.37c-0.26,3.42,0.88,6.92,3.45,9.55l0,0
	c0.02,0.01,0.03,0.03,0.05,0.04c0.02,0.02,0.04,0.04,0.06,0.06l0.01-0.01c2.63,2.57,6.14,3.71,9.55,3.45
	C80.25,40.54,79.47,41.82,78.38,42.91z"/>
<path class="st1" d="M78.38,42.91c-0.43,0.43-0.9,0.81-1.38,1.15c-1.44-2.91-4.44-4.92-7.9-4.92c-0.56,0-1.12,0.06-1.69,0.17
	c-1.81-2.17-3.96-3.94-6.35-5.28c0.34-2.04,1.29-4,2.86-5.58c1.09-1.09,2.37-1.88,3.74-2.37c-0.26,3.42,0.88,6.92,3.45,9.55l0,0
	c0.02,0.01,0.03,0.03,0.05,0.04c0.02,0.02,0.04,0.04,0.06,0.06l0.01-0.01c2.63,2.57,6.14,3.71,9.55,3.45
	C80.25,40.54,79.47,41.82,78.38,42.91z"/>
</svg>
