<?xml version="1.0" encoding="utf-8"?>
<!-- Generator: Adobe Illustrator 25.1.0, SVG Export Plug-In . SVG Version: 6.00 Build 0)  -->
<svg version="1.1" id="Layer_1" xmlns="http://www.w3.org/2000/svg" xmlns:xlink="http://www.w3.org/1999/xlink" x="0px" y="0px"
	 viewBox="0 0 100 100" style="enable-background:new 0 0 100 100;" xml:space="preserve">
<style type="text/css">
	.st0{fill:url(#SVGID_1_);}
</style>
<linearGradient id="SVGID_1_" gradientUnits="userSpaceOnUse" x1="11.1855" y1="50" x2="88.8145" y2="50">
	<stop  offset="0" style="stop-color:#5F2C82"/>
	<stop  offset="1" style="stop-color:#49A09D"/>
</linearGradient>
<path class="st0" d="M75.36,30.03c-1.3,0-2.58,0.19-3.82,0.56c-1.8-5.49-6.88-9.22-12.76-9.22c-2.85,0-5.64,0.91-7.94,2.59
	c-2.86-1.7-6.11-2.59-9.44-2.59c-10.23,0-18.55,8.32-18.55,18.55c0,1.56,0.22,3.07,0.58,4.52c-6.85,0.61-12.25,6.38-12.25,13.39
	c0,7.42,6.03,13.45,13.45,13.45c2.05,0,4.05-0.47,5.88-1.36c1.95,5.19,6.93,8.71,12.58,8.71c4.64,0,8.92-2.38,11.38-6.28
	c1.37,0.32,2.75,0.48,4.12,0.48c9.36,0,17.1-6.97,18.35-15.99c6.67-0.79,11.86-6.47,11.86-13.35
	C88.82,36.07,82.78,30.03,75.36,30.03z M58.6,70.47c-1.44,0-2.91-0.21-4.37-0.61c-0.53-0.15-1.09,0.09-1.35,0.57
	c-1.94,3.6-5.69,5.84-9.78,5.84c-5.08,0-9.5-3.44-10.75-8.37c-0.09-0.37-0.35-0.66-0.7-0.8c-0.14-0.06-0.29-0.08-0.43-0.08
	c-0.22,0-0.44,0.06-0.63,0.18c-1.79,1.14-3.84,1.74-5.94,1.74c-6.12,0-11.1-4.98-11.1-11.1c0-5.97,4.73-10.83,10.64-11.08
	c0.16-0.01,0.31-0.02,0.47-0.02c0.74,0,1.47,0.08,2.19,0.22c0.67,0.14,1.34,0.33,1.98,0.6c0.32,0.13,0.68,0.11,0.99-0.05
	c0.31-0.16,0.53-0.44,0.6-0.78c1.15-5.09,5.6-8.65,10.82-8.65c2.59,0,5.11,0.91,7.11,2.58c0.4,0.33,0.96,0.36,1.4,0.08
	c2.65-1.74,5.71-2.65,8.87-2.65c8.93,0,16.2,7.27,16.2,16.2c0,0.09-0.01,0.18-0.01,0.28c-0.01,0.8-0.09,1.58-0.22,2.34
	C73.31,64.58,66.64,70.47,58.6,70.47z M77.14,54.43c0-0.05,0.01-0.11,0.01-0.16c0-10.23-8.32-18.55-18.55-18.55
	c-3.33,0-6.58,0.89-9.44,2.59c-2.29-1.68-5.08-2.59-7.93-2.59c-5.89,0-10.96,3.73-12.76,9.22c-0.85-0.25-1.72-0.41-2.6-0.49
	c-0.42-1.44-0.65-2.95-0.65-4.52c0-8.93,7.27-16.2,16.2-16.2c3.16,0,6.23,0.92,8.87,2.66c0.43,0.28,1,0.25,1.4-0.08
	c1.99-1.66,4.51-2.58,7.1-2.58c5.22,0,9.67,3.56,10.82,8.65c0.08,0.34,0.3,0.62,0.6,0.78c0.31,0.16,0.67,0.18,0.99,0.05
	c1.34-0.54,2.74-0.82,4.17-0.82c6.12,0,11.1,4.98,11.1,11.1C86.47,49,82.42,53.58,77.14,54.43z"/>
</svg>
