<?xml version="1.0" encoding="utf-8"?>
<!-- Generator: Adobe Illustrator 25.1.0, SVG Export Plug-In . SVG Version: 6.00 Build 0)  -->
<svg version="1.1" id="Layer_1" xmlns="http://www.w3.org/2000/svg" xmlns:xlink="http://www.w3.org/1999/xlink" x="0px" y="0px"
	 viewBox="0 0 100 100" style="enable-background:new 0 0 100 100;" xml:space="preserve">
<style type="text/css">
	.st0{fill:url(#SVGID_1_);}
</style>
<g>
	<linearGradient id="SVGID_1_" gradientUnits="userSpaceOnUse" x1="18.3685" y1="50" x2="81.6315" y2="50">
		<stop  offset="0" style="stop-color:#5F2C82"/>
		<stop  offset="1" style="stop-color:#49A09D"/>
	</linearGradient>
	<path class="st0" d="M36.22,75.71c-5.84,0-10.58-4.75-10.58-10.58c0-0.62,0.06-1.26,0.18-1.89c-4.49-1.87-7.45-6.25-7.45-11.17
		c0-2.57,0.83-5.08,2.34-7.15c-1.03-1.58-1.57-3.4-1.57-5.3c0-5.38,4.37-9.75,9.75-9.75c1.08,0,2.14,0.18,3.16,0.53
		c2.5-3.79,6.77-6.11,11.33-6.11c5.84,0,10.94,3.69,12.82,9.11c2.52-1.38,5.34-2.1,8.22-2.1c9.49,0,17.2,7.72,17.2,17.2
		s-7.72,17.2-17.2,17.2c-1.54,0-3.1-0.22-4.64-0.65c-0.09-0.01-0.16,0.02-0.2,0.09c-2.12,3.93-6.2,6.37-10.66,6.37
		c-1.3,0-2.59-0.21-3.83-0.63C43.16,73.88,39.83,75.71,36.22,75.71z M28.89,31.88c-4.27,0-7.75,3.48-7.75,7.75
		c0,1.72,0.56,3.35,1.61,4.72l0.49,0.64l-0.52,0.62c-1.52,1.81-2.36,4.11-2.36,6.47c0,4.36,2.79,8.21,6.93,9.59l0.9,0.3l-0.25,0.91
		c-0.21,0.76-0.31,1.52-0.31,2.26c0,4.73,3.85,8.58,8.58,8.58c3.17,0,6.06-1.73,7.56-4.53l0.43-0.8l0.84,0.35
		c1.25,0.52,2.55,0.78,3.88,0.78c3.72,0,7.13-2.04,8.9-5.32c0.47-0.88,1.54-1.33,2.5-1.06c1.36,0.38,2.74,0.58,4.1,0.58
		c8.38,0,15.2-6.82,15.2-15.2c0-8.38-6.82-15.2-15.2-15.2c-2.94,0-5.8,0.85-8.27,2.46l-1.19,0.77l-0.33-1.38
		c-1.26-5.22-5.88-8.87-11.25-8.87c-4.14,0-7.99,2.24-10.06,5.85l-0.45,0.79l-0.83-0.37C31.05,32.1,29.98,31.88,28.89,31.88z"/>
</g>
</svg>
