<?xml version="1.0" encoding="utf-8"?>
<!-- Generator: Adobe Illustrator 25.1.0, SVG Export Plug-In . SVG Version: 6.00 Build 0)  -->
<svg version="1.1" id="Layer_1" xmlns="http://www.w3.org/2000/svg" xmlns:xlink="http://www.w3.org/1999/xlink" x="0px" y="0px"
	 viewBox="0 0 100 100" style="enable-background:new 0 0 100 100;" xml:space="preserve">
<style type="text/css">
	.st0{fill:url(#SVGID_1_);}
	.st1{fill:url(#SVGID_2_);}
	.st2{fill:url(#SVGID_3_);}
	.st3{fill:url(#SVGID_4_);}
</style>
<g>
	<linearGradient id="SVGID_1_" gradientUnits="userSpaceOnUse" x1="40.3741" y1="85.8967" x2="83.1635" y2="45.9494">
		<stop  offset="0" style="stop-color:#5F2C82"/>
		<stop  offset="1" style="stop-color:#49A09D"/>
	</linearGradient>
	<path class="st0" d="M52.09,67.62l-0.83,1.24c-0.59,0.88-3.55,5.39-3.55,7.46c0,2.41,1.96,4.38,4.38,4.38
		c2.41,0,4.38-1.96,4.38-4.38c0-2.06-2.95-6.57-3.55-7.46L52.09,67.62z M52.09,78.69c-1.31,0-2.38-1.07-2.38-2.38
		c0-0.86,1.21-3.15,2.38-5.05c1.17,1.9,2.38,4.18,2.38,5.05C54.47,77.63,53.4,78.69,52.09,78.69z"/>
	<linearGradient id="SVGID_2_" gradientUnits="userSpaceOnUse" x1="35.7172" y1="80.9085" x2="78.5066" y2="40.9612">
		<stop  offset="0" style="stop-color:#5F2C82"/>
		<stop  offset="1" style="stop-color:#49A09D"/>
	</linearGradient>
	<path class="st1" d="M42.09,67.62l-0.83,1.24c-0.59,0.88-3.55,5.39-3.55,7.46c0,2.41,1.96,4.38,4.38,4.38
		c2.41,0,4.38-1.96,4.38-4.38c0-2.06-2.95-6.57-3.55-7.46L42.09,67.62z M42.09,78.69c-1.31,0-2.38-1.07-2.38-2.38
		c0-0.86,1.21-3.15,2.38-5.05c1.17,1.9,2.38,4.18,2.38,5.05C44.47,77.63,43.4,78.69,42.09,78.69z"/>
	<linearGradient id="SVGID_3_" gradientUnits="userSpaceOnUse" x1="45.031" y1="90.8849" x2="87.8204" y2="50.9376">
		<stop  offset="0" style="stop-color:#5F2C82"/>
		<stop  offset="1" style="stop-color:#49A09D"/>
	</linearGradient>
	<path class="st2" d="M62.09,67.62l-0.83,1.24c-0.59,0.88-3.55,5.39-3.55,7.46c0,2.41,1.96,4.38,4.38,4.38
		c2.41,0,4.38-1.96,4.38-4.38c0-2.06-2.95-6.57-3.55-7.46L62.09,67.62z M62.09,78.69c-1.31,0-2.38-1.07-2.38-2.38
		c0-0.86,1.21-3.15,2.38-5.05c1.17,1.9,2.38,4.18,2.38,5.05C64.47,77.63,63.4,78.69,62.09,78.69z"/>
	<linearGradient id="SVGID_4_" gradientUnits="userSpaceOnUse" x1="24.1519" y1="68.5203" x2="66.9412" y2="28.573">
		<stop  offset="0" style="stop-color:#5F2C82"/>
		<stop  offset="1" style="stop-color:#49A09D"/>
	</linearGradient>
	<path class="st3" d="M80.62,36.13c0-4.86-3.96-8.82-8.82-8.82c-0.56,0-1.12,0.06-1.69,0.17c-4.33-5.2-10.65-8.17-17.43-8.17
		c-9.72,0-18.46,6.34-21.52,15.51c-6.55,0.31-11.79,5.74-11.79,12.36c0,6.82,5.55,12.38,12.38,12.38c1.82,0,3.62-0.4,5.26-1.17
		c4.24,4.07,9.78,6.3,15.68,6.3c9.51,0,17.94-5.89,21.25-14.74c0.21,0.02,0.4,0.03,0.6,0.03c3.36,0,6.09-2.73,6.09-6.09
		c0-1.24-0.39-2.46-1.11-3.48C80.24,39.11,80.62,37.64,80.62,36.13z M77.55,41.17c0.69,0.76,1.07,1.73,1.07,2.73
		c0,2.25-1.83,4.09-4.09,4.09c-0.31,0-0.63-0.05-1.01-0.14l-0.9-0.23l-0.29,0.89c-2.81,8.49-10.7,14.19-19.64,14.19
		c-5.6,0-10.85-2.21-14.78-6.21l-0.53-0.54l-0.67,0.36c-1.51,0.83-3.23,1.27-4.97,1.27c-5.72,0-10.38-4.65-10.38-10.38
		s4.65-10.38,10.37-10.38h0l0.9,0.01l0.21-0.71c2.59-8.71,10.74-14.79,19.83-14.79c6.38,0,12.3,2.88,16.26,7.91l0.41,0.52L70,29.56
		c0.61-0.17,1.22-0.25,1.81-0.25c3.76,0,6.82,3.06,6.82,6.82c0,1.36-0.4,2.68-1.16,3.81l-0.44,0.65L77.55,41.17z"/>
</g>
</svg>
