<?xml version="1.0" encoding="utf-8"?>
<!-- Generator: Adobe Illustrator 25.1.0, SVG Export Plug-In . SVG Version: 6.00 Build 0)  -->
<svg version="1.1" id="Layer_1" xmlns="http://www.w3.org/2000/svg" xmlns:xlink="http://www.w3.org/1999/xlink" x="0px" y="0px"
	 viewBox="0 0 100 100" style="enable-background:new 0 0 100 100;" xml:space="preserve">
<style type="text/css">
	.st0{fill:url(#SVGID_1_);}
	.st1{fill:url(#SVGID_2_);}
	.st2{fill:url(#SVGID_3_);}
	.st3{fill:#FFFFFF;}
	.st4{fill:url(#SVGID_4_);}
	.st5{fill:url(#SVGID_5_);}
	.st6{fill:url(#SVGID_6_);}
	.st7{fill:url(#SVGID_7_);}
	.st8{fill:url(#SVGID_8_);}
	.st9{fill:#FFE888;}
</style>
<g>
	
		<linearGradient id="SVGID_1_" gradientUnits="userSpaceOnUse" x1="40.3776" y1="6.991" x2="83.167" y2="46.9383" gradientTransform="matrix(1 0 0 -1 0 102)">
		<stop  offset="0" style="stop-color:#5F2C82"/>
		<stop  offset="1" style="stop-color:#49A09D"/>
	</linearGradient>
	<path class="st0" d="M52.09,76.73l-0.83,1.24c-0.59,0.88-3.55,5.39-3.55,7.46c0,2.41,1.96,4.38,4.38,4.38
		c2.41,0,4.38-1.96,4.38-4.38c0-2.06-2.95-6.57-3.55-7.46L52.09,76.73z M52.09,87.8c-1.31,0-2.38-1.07-2.38-2.38
		c0-0.86,1.21-3.15,2.38-5.05c1.17,1.9,2.38,4.18,2.38,5.05C54.47,86.73,53.4,87.8,52.09,87.8z"/>
	
		<linearGradient id="SVGID_2_" gradientUnits="userSpaceOnUse" x1="35.7207" y1="11.9792" x2="78.5101" y2="51.9265" gradientTransform="matrix(1 0 0 -1 0 102)">
		<stop  offset="0" style="stop-color:#5F2C82"/>
		<stop  offset="1" style="stop-color:#49A09D"/>
	</linearGradient>
	<path class="st1" d="M42.09,76.73l-0.83,1.24c-0.59,0.88-3.55,5.39-3.55,7.46c0,2.41,1.96,4.38,4.38,4.38
		c2.41,0,4.38-1.96,4.38-4.38c0-2.06-2.95-6.57-3.55-7.46L42.09,76.73z M42.09,87.8c-1.31,0-2.38-1.07-2.38-2.38
		c0-0.86,1.21-3.15,2.38-5.05c1.17,1.9,2.38,4.18,2.38,5.05C44.47,86.73,43.4,87.8,42.09,87.8z"/>
	
		<linearGradient id="SVGID_3_" gradientUnits="userSpaceOnUse" x1="45.0345" y1="2.0027" x2="87.8238" y2="41.95" gradientTransform="matrix(1 0 0 -1 0 102)">
		<stop  offset="0" style="stop-color:#5F2C82"/>
		<stop  offset="1" style="stop-color:#49A09D"/>
	</linearGradient>
	<path class="st2" d="M62.09,76.73l-0.83,1.24c-0.59,0.88-3.55,5.39-3.55,7.46c0,2.41,1.96,4.38,4.38,4.38
		c2.41,0,4.38-1.96,4.38-4.38c0-2.06-2.95-6.57-3.55-7.46L62.09,76.73z M62.09,87.8c-1.31,0-2.38-1.07-2.38-2.38
		c0-0.86,1.21-3.15,2.38-5.05c1.17,1.9,2.38,4.18,2.38,5.05C64.47,86.73,63.4,87.8,62.09,87.8z"/>
</g>
<g>
	<path class="st3" d="M28.64,41.33c0.01,0,0.16-0.05,0.43-0.12c0.21-0.06,0.42-0.1,0.63-0.15c0.94-0.2,2.42-0.41,4.11-0.26l0,0
		c0.88,0.08,1.75,0.24,2.6,0.49c1.8-5.49,6.87-9.22,12.76-9.22c0.2,0,0.41,0.01,0.61,0.02c-2.26-2.3-5.4-3.74-8.87-3.74
		c-6.82,0-12.38,5.53-12.43,12.34c0,0.23,0.03,0.45,0.04,0.68C28.56,41.36,28.6,41.34,28.64,41.33L28.64,41.33z"/>
	
		<linearGradient id="SVGID_4_" gradientUnits="userSpaceOnUse" x1="2.5132" y1="45.0132" x2="48.6737" y2="91.1738" gradientTransform="matrix(1 0 0 -1 0 102)">
		<stop  offset="0" style="stop-color:#5F2C82"/>
		<stop  offset="1" style="stop-color:#49A09D"/>
	</linearGradient>
	<rect x="39.71" y="14.11" class="st4" width="2.42" height="8.94"/>
	
		<linearGradient id="SVGID_5_" gradientUnits="userSpaceOnUse" x1="-1.8293" y1="49.3557" x2="44.3313" y2="95.5163" gradientTransform="matrix(1 0 0 -1 0 102)">
		<stop  offset="0" style="stop-color:#5F2C82"/>
		<stop  offset="1" style="stop-color:#49A09D"/>
	</linearGradient>
	<polygon class="st5" points="30.1,27.04 23.77,20.72 22.07,22.42 28.39,28.75 	"/>
	
		<linearGradient id="SVGID_6_" gradientUnits="userSpaceOnUse" x1="13.0082" y1="34.5182" x2="59.1688" y2="80.6788" gradientTransform="matrix(1 0 0 -1 0 102)">
		<stop  offset="0" style="stop-color:#5F2C82"/>
		<stop  offset="1" style="stop-color:#49A09D"/>
	</linearGradient>
	<polygon class="st6" points="59.77,22.42 58.07,20.72 51.74,27.04 53.45,28.75 	"/>
	
		<linearGradient id="SVGID_7_" gradientUnits="userSpaceOnUse" x1="3.1182" y1="44.4082" x2="49.2787" y2="90.5688" gradientTransform="matrix(1 0 0 -1 0 102)">
		<stop  offset="0" style="stop-color:#5F2C82"/>
		<stop  offset="1" style="stop-color:#49A09D"/>
	</linearGradient>
	<rect x="15.46" y="39.57" class="st7" width="8.94" height="2.42"/>
	
		<linearGradient id="SVGID_8_" gradientUnits="userSpaceOnUse" x1="23.7928" y1="23.7336" x2="69.9534" y2="69.8942" gradientTransform="matrix(1 0 0 -1 0 102)">
		<stop  offset="0" style="stop-color:#5F2C82"/>
		<stop  offset="1" style="stop-color:#49A09D"/>
	</linearGradient>
	<path class="st8" d="M85.06,50.02c-0.01-0.42-0.02-0.85-0.06-1.26c0-0.02,0-0.03,0-0.05c-0.96-9.33-8.87-16.63-18.45-16.63
		c-3.33,0-6.58,0.89-9.44,2.59c-1.14-0.83-2.39-1.47-3.72-1.91c-2.65-4.09-7.23-6.81-12.46-6.81c-8.13,0-14.75,6.57-14.85,14.68
		h-0.01c0,0.03,0,0.05,0,0.07c0,0.03,0,0.07,0,0.1h0.01c0.01,0.54,0.05,1.07,0.11,1.59c-4.2,2.28-7.06,6.7-7.06,11.8
		c0,7.42,6.03,13.45,13.45,13.45c2.05,0,4.05-0.47,5.88-1.36c1.95,5.19,6.93,8.71,12.58,8.71c4.64,0,8.92-2.38,11.38-6.28
		c1.37,0.32,2.75,0.48,4.12,0.48c8.45,0,15.56-5.68,17.79-13.42l-0.02-0.01c0.14-0.43,0.25-0.87,0.35-1.3
		c0.07-0.33,0.13-0.66,0.19-1C85.03,52.14,85.07,50.93,85.06,50.02z M40.91,28.36c3.47,0,6.61,1.43,8.87,3.74
		c-0.2-0.01-0.41-0.02-0.61-0.02c-5.89,0-10.96,3.73-12.76,9.22c-0.85-0.25-1.72-0.41-2.6-0.49l0,0c-1.69-0.14-3.17,0.06-4.11,0.26
		c-0.21,0.05-0.42,0.09-0.63,0.15c-0.26,0.07-0.42,0.12-0.43,0.12l0,0c-0.04,0.01-0.08,0.03-0.12,0.04
		c-0.01-0.22-0.04-0.45-0.04-0.68C28.53,33.89,34.09,28.36,40.91,28.36z M82.75,50.92c-0.01,0.8-0.09,1.58-0.22,2.34
		c-1.28,7.67-7.95,13.56-15.99,13.56c-1.44,0-2.91-0.21-4.37-0.61c-0.53-0.15-1.09,0.09-1.35,0.57c-1.94,3.6-5.69,5.84-9.78,5.84
		c-5.08,0-9.5-3.44-10.75-8.37c-0.09-0.37-0.35-0.66-0.7-0.8c-0.14-0.06-0.29-0.08-0.43-0.08c-0.22,0-0.44,0.06-0.63,0.18
		c-1.79,1.14-3.84,1.74-5.94,1.74c-6.12,0-11.1-4.98-11.1-11.1c0-3.95,2.08-7.41,5.2-9.38c0.69-0.43,1.42-0.8,2.21-1.08
		c1.02-0.36,2.1-0.58,3.23-0.63c0.16-0.01,0.31-0.02,0.47-0.02c0.74,0,1.47,0.08,2.19,0.22c0.67,0.14,1.34,0.33,1.98,0.6
		c0.32,0.13,0.68,0.11,0.99-0.05s0.53-0.44,0.6-0.78c1.15-5.09,5.6-8.65,10.82-8.65c0.88,0,1.75,0.11,2.59,0.32
		c1.14,0.27,2.22,0.73,3.22,1.34c0.45,0.28,0.89,0.58,1.3,0.92c0.4,0.33,0.96,0.36,1.4,0.08c2.65-1.74,5.71-2.65,8.87-2.65
		c8.93,0,16.2,7.27,16.2,16.2C82.76,50.73,82.75,50.82,82.75,50.92z"/>
</g>
<path class="st9" d="M40.91,28.36c3.47,0,6.61,1.43,8.87,3.74c-0.2-0.01-0.41-0.02-0.61-0.02c-5.89,0-10.96,3.73-12.76,9.22
	c-0.85-0.25-1.72-0.41-2.6-0.49l0,0c-1.69-0.14-3.17,0.06-4.11,0.26c-0.21,0.05-0.42,0.09-0.63,0.15c-0.26,0.07-0.42,0.12-0.43,0.12
	l0,0c-0.04,0.01-0.08,0.03-0.12,0.04c-0.01-0.22-0.04-0.45-0.04-0.68C28.53,33.89,34.09,28.36,40.91,28.36z"/>
</svg>
