<?xml version="1.0" encoding="utf-8"?>
<!-- Generator: Adobe Illustrator 25.1.0, SVG Export Plug-In . SVG Version: 6.00 Build 0)  -->
<svg version="1.1" id="Layer_1" xmlns="http://www.w3.org/2000/svg" xmlns:xlink="http://www.w3.org/1999/xlink" x="0px" y="0px"
	 viewBox="0 0 100 100" style="enable-background:new 0 0 100 100;" xml:space="preserve">
<style type="text/css">
	.st0{fill:url(#SVGID_1_);}
	.st1{fill:url(#SVGID_2_);}
	.st2{fill:url(#SVGID_3_);}
	.st3{fill:none;}
	.st4{fill:url(#SVGID_4_);}
	.st5{fill:url(#SVGID_5_);}
</style>
<g>
	<linearGradient id="SVGID_1_" gradientUnits="userSpaceOnUse" x1="40.3741" y1="95.0053" x2="83.1635" y2="55.058">
		<stop  offset="0" style="stop-color:#5F2C82"/>
		<stop  offset="1" style="stop-color:#49A09D"/>
	</linearGradient>
	<path class="st0" d="M52.09,76.73l-0.83,1.24c-0.59,0.88-3.55,5.39-3.55,7.46c0,2.41,1.96,4.38,4.38,4.38
		c2.41,0,4.38-1.96,4.38-4.38c0-2.06-2.95-6.57-3.55-7.46L52.09,76.73z M52.09,87.8c-1.31,0-2.38-1.07-2.38-2.38
		c0-0.86,1.21-3.15,2.38-5.05c1.17,1.9,2.38,4.18,2.38,5.05C54.47,86.73,53.4,87.8,52.09,87.8z"/>
	<linearGradient id="SVGID_2_" gradientUnits="userSpaceOnUse" x1="35.7172" y1="90.0171" x2="78.5066" y2="50.0698">
		<stop  offset="0" style="stop-color:#5F2C82"/>
		<stop  offset="1" style="stop-color:#49A09D"/>
	</linearGradient>
	<path class="st1" d="M42.09,76.73l-0.83,1.24c-0.59,0.88-3.55,5.39-3.55,7.46c0,2.41,1.96,4.38,4.38,4.38
		c2.41,0,4.38-1.96,4.38-4.38c0-2.06-2.95-6.57-3.55-7.46L42.09,76.73z M42.09,87.8c-1.31,0-2.38-1.07-2.38-2.38
		c0-0.86,1.21-3.15,2.38-5.05c1.17,1.9,2.38,4.18,2.38,5.05C44.47,86.73,43.4,87.8,42.09,87.8z"/>
	<linearGradient id="SVGID_3_" gradientUnits="userSpaceOnUse" x1="45.031" y1="99.9936" x2="87.8204" y2="60.0463">
		<stop  offset="0" style="stop-color:#5F2C82"/>
		<stop  offset="1" style="stop-color:#49A09D"/>
	</linearGradient>
	<path class="st2" d="M62.09,76.73l-0.83,1.24c-0.59,0.88-3.55,5.39-3.55,7.46c0,2.41,1.96,4.38,4.38,4.38
		c2.41,0,4.38-1.96,4.38-4.38c0-2.06-2.95-6.57-3.55-7.46L62.09,76.73z M62.09,87.8c-1.31,0-2.38-1.07-2.38-2.38
		c0-0.86,1.21-3.15,2.38-5.05c1.17,1.9,2.38,4.18,2.38,5.05C64.47,86.73,63.4,87.8,62.09,87.8z"/>
</g>
<g>
	<path class="st3" d="M33.81,40.8C33.81,40.8,33.81,40.8,33.81,40.8c0.88,0.08,1.75,0.24,2.6,0.49c1.63-4.97,5.94-8.49,11.11-9.11
		c-0.41-2.13-1.4-4.17-3-5.85c-1.21-1.28-2.65-2.2-4.17-2.82c0.2,3.9-1.2,7.85-4.21,10.77l0.01,0.01c-0.02,0.02-0.04,0.04-0.07,0.06
		c-0.01,0.01-0.04,0.03-0.05,0.05l-0.01-0.01c-3.07,2.85-7.09,4.05-10.97,3.65c0.46,1.38,1.19,2.68,2.18,3.84
		c0.77-0.33,1.64-0.64,2.64-0.86C30.82,40.84,32.21,40.66,33.81,40.8z"/>
	
		<linearGradient id="SVGID_4_" gradientUnits="userSpaceOnUse" x1="38.2058" y1="13.2951" x2="61.2858" y2="13.2951" gradientTransform="matrix(-0.6888 -0.7249 0.7249 -0.6888 62.4153 81.3389)">
		<stop  offset="0" style="stop-color:#5F2C82"/>
		<stop  offset="1" style="stop-color:#49A09D"/>
	</linearGradient>
	<path class="st4" d="M25.5,42.78c0.15-0.09,0.31-0.18,0.47-0.27c0.38-0.21,0.81-0.42,1.28-0.62c-0.99-1.16-1.72-2.46-2.18-3.84
		c3.88,0.4,7.9-0.8,10.97-3.65l0.01,0.01c0.01-0.01,0.04-0.03,0.05-0.05c0.02-0.02,0.04-0.04,0.07-0.06l-0.01-0.01
		c3-2.92,4.41-6.88,4.21-10.77c1.53,0.62,2.96,1.55,4.17,2.82c1.6,1.68,2.59,3.73,3,5.85c0.54-0.07,1.09-0.11,1.65-0.11
		c0.2,0,0.41,0.01,0.61,0.02c-0.01-0.01-0.01-0.01-0.02-0.02c0.01,0,0.03,0,0.05,0c-0.44-2.66-1.65-5.22-3.65-7.31
		c-1.76-1.85-3.91-3.1-6.2-3.77c-0.82-0.24-1.66-0.41-2.51-0.49c0.27,0.75,0.45,1.55,0.54,2.36c0.41,3.53-0.75,7.2-3.5,9.83
		c-2.78,2.6-6.49,3.58-9.99,2.98c-0.8-0.14-1.58-0.35-2.34-0.65c0.05,0.85,0.16,1.69,0.36,2.53c0.46,1.94,1.34,3.8,2.63,5.44
		c0.07-0.05,0.13-0.1,0.21-0.15C25.41,42.83,25.45,42.8,25.5,42.78z"/>
	<linearGradient id="SVGID_5_" gradientUnits="userSpaceOnUse" x1="30.195" y1="74.0299" x2="73.4581" y2="33.5036">
		<stop  offset="0" style="stop-color:#5F2C82"/>
		<stop  offset="1" style="stop-color:#49A09D"/>
	</linearGradient>
	<path class="st5" d="M85.06,50.02c-0.01-0.42-0.02-0.85-0.06-1.26c0-0.02,0-0.03,0-0.05c-0.96-9.33-8.87-16.63-18.45-16.63
		c-3.33,0-6.58,0.89-9.44,2.59c-1.12-0.82-2.36-1.45-3.66-1.89c-1.37-0.45-2.62-0.63-3.63-0.69c-0.01,0-0.03,0-0.05,0
		c0.01,0.01,0.01,0.01,0.02,0.02c-0.2-0.01-0.41-0.02-0.61-0.02c-0.56,0-1.11,0.04-1.65,0.11c-5.17,0.62-9.48,4.14-11.11,9.11
		c-0.85-0.25-1.72-0.41-2.6-0.49c0,0,0,0,0,0c-1.59-0.14-2.98,0.04-3.92,0.23c-1,0.22-1.88,0.52-2.64,0.86
		c-0.47,0.2-0.9,0.41-1.28,0.62c-0.16,0.09-0.31,0.18-0.47,0.27c-0.04,0.03-0.08,0.05-0.12,0.08c-0.07,0.05-0.13,0.1-0.21,0.15
		c-0.38,0.25-0.75,0.51-1.1,0.79c-0.16,0.14-0.25,0.22-0.25,0.23l-0.01-0.01c-2.87,2.46-4.69,6.1-4.69,10.17
		c0,7.42,6.03,13.45,13.45,13.45c2.05,0,4.05-0.47,5.88-1.36c1.95,5.19,6.93,8.71,12.58,8.71c4.64,0,8.92-2.38,11.38-6.28
		c1.37,0.32,2.75,0.48,4.12,0.48c8.45,0,15.56-5.68,17.79-13.42l-0.02-0.01c0.14-0.43,0.25-0.87,0.35-1.3
		c0.07-0.33,0.13-0.66,0.19-1C85.03,52.14,85.07,50.93,85.06,50.02z M82.75,50.92c-0.01,0.8-0.09,1.58-0.22,2.34
		c-1.28,7.67-7.95,13.56-15.99,13.56c-1.44,0-2.91-0.21-4.37-0.61c-0.53-0.15-1.09,0.09-1.35,0.57c-1.94,3.6-5.69,5.84-9.78,5.84
		c-5.08,0-9.5-3.44-10.75-8.37c-0.09-0.37-0.35-0.66-0.7-0.8c-0.14-0.06-0.29-0.08-0.43-0.08c-0.22,0-0.44,0.06-0.63,0.18
		c-1.79,1.14-3.84,1.74-5.94,1.74c-6.12,0-11.1-4.98-11.1-11.1c0-3.95,2.08-7.41,5.2-9.38c0.04-0.03,0.09-0.05,0.13-0.07
		c0.65-0.4,1.34-0.75,2.08-1.01c0.08-0.03,0.16-0.05,0.23-0.07c0.95-0.31,1.95-0.51,3-0.55c0.16-0.01,0.31-0.02,0.47-0.02
		c0.74,0,1.47,0.08,2.19,0.22c0.67,0.14,1.34,0.33,1.98,0.6c0.32,0.13,0.68,0.11,0.99-0.05c0.31-0.16,0.53-0.44,0.6-0.78
		c1.04-4.61,4.8-7.96,9.38-8.55c0.47-0.06,0.95-0.1,1.44-0.1c0.27,0,0.54,0.03,0.81,0.05c0.6,0.05,1.19,0.13,1.78,0.27
		c1.14,0.27,2.22,0.73,3.22,1.34c0.45,0.28,0.89,0.58,1.3,0.92c0.4,0.33,0.96,0.36,1.4,0.08c2.65-1.74,5.71-2.65,8.87-2.65
		c8.93,0,16.2,7.27,16.2,16.2C82.76,50.73,82.75,50.82,82.75,50.92z"/>
</g>
</svg>
