<?xml version="1.0" encoding="utf-8"?>
<!-- Generator: Adobe Illustrator 25.1.0, SVG Export Plug-In . SVG Version: 6.00 Build 0)  -->
<svg version="1.1" id="Layer_1" xmlns="http://www.w3.org/2000/svg" xmlns:xlink="http://www.w3.org/1999/xlink" x="0px" y="0px"
	 viewBox="0 0 100 100" style="enable-background:new 0 0 100 100;" xml:space="preserve">
<style type="text/css">
	.st0{fill:url(#SVGID_1_);}
	.st1{fill:url(#SVGID_2_);}
	.st2{fill:url(#SVGID_3_);}
	.st3{fill:#CAE9EF;}
	.st4{fill:url(#SVGID_4_);}
	.st5{fill:#AAA5E5;}
	.st6{fill:url(#SVGID_5_);}
	.st7{fill:url(#SVGID_6_);}
</style>
<g>
	
		<linearGradient id="SVGID_1_" gradientUnits="userSpaceOnUse" x1="40.3776" y1="1073.009" x2="83.167" y2="1033.0618" gradientTransform="matrix(1 0 0 1 0 -978)">
		<stop  offset="0" style="stop-color:#5F2C82"/>
		<stop  offset="1" style="stop-color:#49A09D"/>
	</linearGradient>
	<path class="st0" d="M52.09,76.73l-0.83,1.24c-0.59,0.88-3.55,5.39-3.55,7.46c0,2.41,1.96,4.38,4.38,4.38
		c2.41,0,4.38-1.96,4.38-4.38c0-2.06-2.95-6.57-3.55-7.46L52.09,76.73z M52.09,87.8c-1.31,0-2.38-1.07-2.38-2.38
		c0-0.86,1.21-3.15,2.38-5.05c1.17,1.9,2.38,4.18,2.38,5.05C54.47,86.73,53.4,87.8,52.09,87.8z"/>
	
		<linearGradient id="SVGID_2_" gradientUnits="userSpaceOnUse" x1="35.7207" y1="1068.0209" x2="78.5101" y2="1028.0735" gradientTransform="matrix(1 0 0 1 0 -978)">
		<stop  offset="0" style="stop-color:#5F2C82"/>
		<stop  offset="1" style="stop-color:#49A09D"/>
	</linearGradient>
	<path class="st1" d="M42.09,76.73l-0.83,1.24c-0.59,0.88-3.55,5.39-3.55,7.46c0,2.41,1.96,4.38,4.38,4.38
		c2.41,0,4.38-1.96,4.38-4.38c0-2.06-2.95-6.57-3.55-7.46L42.09,76.73z M42.09,87.8c-1.31,0-2.38-1.07-2.38-2.38
		c0-0.86,1.21-3.15,2.38-5.05c1.17,1.9,2.38,4.18,2.38,5.05C44.47,86.73,43.4,87.8,42.09,87.8z"/>
	
		<linearGradient id="SVGID_3_" gradientUnits="userSpaceOnUse" x1="45.0345" y1="1077.9973" x2="87.8238" y2="1038.05" gradientTransform="matrix(1 0 0 1 0 -978)">
		<stop  offset="0" style="stop-color:#5F2C82"/>
		<stop  offset="1" style="stop-color:#49A09D"/>
	</linearGradient>
	<path class="st2" d="M62.09,76.73l-0.83,1.24c-0.59,0.88-3.55,5.39-3.55,7.46c0,2.41,1.96,4.38,4.38,4.38
		c2.41,0,4.38-1.96,4.38-4.38c0-2.06-2.95-6.57-3.55-7.46L62.09,76.73z M62.09,87.8c-1.31,0-2.38-1.07-2.38-2.38
		c0-0.86,1.21-3.15,2.38-5.05c1.17,1.9,2.38,4.18,2.38,5.05C64.47,86.73,63.4,87.8,62.09,87.8z"/>
</g>
<g id="XMLID_1_">
	<g>
		<path class="st3" d="M29.87,41.02c-1,0.22-1.86,0.53-2.63,0.86c-0.98-1.16-1.71-2.45-2.17-3.83c3.88,0.4,7.89-0.8,10.96-3.65h0.01
			l0.01,0.01c0.01-0.01,0.04-0.03,0.05-0.05c0.02-0.02,0.04-0.04,0.07-0.06l-0.01-0.01c3-2.92,4.41-6.88,4.21-10.77
			c1.33,0.54,2.59,1.31,3.69,2.35c0.15,0.15,0.31,0.3,0.46,0.46c1.6,1.68,2.59,3.72,3,5.85c-5.17,0.62-9.48,4.14-11.11,9.11
			c-0.85-0.25-1.72-0.41-2.6-0.49C32.21,40.66,30.82,40.84,29.87,41.02z"/>
		
			<linearGradient id="SVGID_4_" gradientUnits="userSpaceOnUse" x1="54.0514" y1="65.4148" x2="38.1539" y2="82.1454" gradientTransform="matrix(1 0 0 -1 0 102)">
			<stop  offset="0" style="stop-color:#5F2C82"/>
			<stop  offset="1" style="stop-color:#49A09D"/>
		</linearGradient>
		<path class="st4" d="M49.79,32.09L49.79,32.09C49.79,32.1,49.79,32.1,49.79,32.09c-0.01,0.01-0.01,0.01-0.02,0
			C49.78,32.09,49.79,32.09,49.79,32.09z"/>
		<path class="st5" d="M36.14,34.28c3.01-2.92,4.41-6.87,4.21-10.77c0.01,0,0.01,0.01,0.02,0.01c0.2,3.89-1.21,7.85-4.21,10.77
			l0.01,0.01c-0.03,0.02-0.05,0.04-0.07,0.06c-0.01,0.02-0.04,0.04-0.05,0.05l-0.01-0.01c0.01-0.03,0.03-0.04,0.04-0.05
			c0.03-0.02,0.05-0.04,0.07-0.06L36.14,34.28z"/>
		<path class="st5" d="M25.07,38.05c0.46,1.38,1.19,2.67,2.17,3.83h-0.01c-0.99-1.16-1.72-2.46-2.18-3.84
			c3.88,0.4,7.9-0.8,10.97-3.65l0.01,0.01C32.96,37.25,28.95,38.45,25.07,38.05z"/>
		
			<linearGradient id="SVGID_5_" gradientUnits="userSpaceOnUse" x1="45.7427" y1="57.5198" x2="29.8452" y2="74.2504" gradientTransform="matrix(1 0 0 -1 0 102)">
			<stop  offset="0" style="stop-color:#5F2C82"/>
			<stop  offset="1" style="stop-color:#49A09D"/>
		</linearGradient>
		<path class="st6" d="M25.17,43c-1.29-1.64-2.17-3.5-2.63-5.44c-0.2-0.84-0.31-1.68-0.36-2.53c0.76,0.3,1.54,0.51,2.34,0.65
			c3.5,0.6,7.21-0.38,9.99-2.98c2.75-2.63,3.91-6.3,3.5-9.83c-0.09-0.81-0.27-1.61-0.54-2.36c0.85,0.08,1.69,0.25,2.51,0.49
			c2.29,0.67,4.44,1.92,6.2,3.77c2,2.09,3.21,4.65,3.65,7.31c-0.02,0-0.04,0-0.05,0l0.01,0.01c0,0-0.01,0-0.02,0
			c0.01,0.01,0.01,0.01,0.01,0.01c-0.19-0.01-0.4-0.02-0.59-0.02c-0.41,0-0.81,0.02-1.2,0.07c-0.11,0-0.21,0.01-0.31,0.03
			c-0.05,0-0.09,0-0.14,0.01c-0.41-2.12-1.4-4.17-3-5.85c-0.01-0.01-0.01-0.01-0.02-0.01c-0.15-0.17-0.31-0.32-0.46-0.46
			c-1.1-1.04-2.36-1.81-3.69-2.35c-0.01,0-0.01-0.01-0.02-0.01c0.2,3.9-1.2,7.85-4.21,10.77l0.01,0.01
			c-0.02,0.02-0.04,0.04-0.07,0.06c-0.01,0.01-0.03,0.02-0.04,0.05h-0.01l-0.01-0.01c-3.07,2.85-7.09,4.05-10.97,3.65
			c0.46,1.38,1.19,2.68,2.18,3.84h0.01l0.01,0.01c-0.47,0.2-0.9,0.41-1.28,0.62c-0.16,0.09-0.32,0.18-0.47,0.27
			c-0.05,0.02-0.09,0.05-0.12,0.07C25.3,42.9,25.24,42.95,25.17,43z"/>
		
			<linearGradient id="SVGID_6_" gradientUnits="userSpaceOnUse" x1="30.2148" y1="27.9489" x2="73.4394" y2="68.4391" gradientTransform="matrix(1 0 0 -1 0 102)">
			<stop  offset="0" style="stop-color:#5F2C82"/>
			<stop  offset="1" style="stop-color:#49A09D"/>
		</linearGradient>
		<path class="st7" d="M26.69,44.81c-3.12,1.97-5.2,5.43-5.2,9.38c0,6.12,4.98,11.1,11.1,11.1c2.1,0,4.15-0.6,5.94-1.74
			c0.19-0.12,0.41-0.18,0.63-0.18c0.14,0,0.29,0.02,0.43,0.08c0.35,0.14,0.61,0.43,0.7,0.8c1.25,4.93,5.67,8.37,10.75,8.37
			c4.09,0,7.84-2.24,9.78-5.84c0.26-0.48,0.82-0.72,1.35-0.57c1.46,0.4,2.93,0.61,4.37,0.61c8.04,0,14.71-5.89,15.99-13.56
			c0.13-0.76,0.21-1.54,0.22-2.34c0-0.1,0.01-0.19,0.01-0.28c0-8.93-7.27-16.2-16.2-16.2c-3.16,0-6.22,0.91-8.87,2.65
			c-0.44,0.28-1,0.25-1.4-0.08c-0.41-0.34-0.85-0.64-1.3-0.92c-1-0.61-2.08-1.07-3.22-1.34c-0.59-0.14-1.18-0.22-1.78-0.27
			c-0.27-0.02-0.54-0.05-0.81-0.05c-0.49,0-0.97,0.04-1.44,0.1c-4.58,0.59-8.34,3.94-9.38,8.55c-0.07,0.34-0.29,0.62-0.6,0.78
			c-0.31,0.16-0.67,0.18-0.99,0.05c-0.64-0.27-1.31-0.46-1.98-0.6c-0.72-0.14-1.45-0.22-2.19-0.22c-0.16,0-0.31,0.01-0.47,0.02
			c-1.05,0.04-2.05,0.24-3,0.55c-0.07,0.02-0.15,0.04-0.23,0.07c-0.74,0.26-1.43,0.61-2.08,1.01
			C26.78,44.76,26.73,44.78,26.69,44.81z M23.83,44.05c0-0.01,0.09-0.09,0.25-0.23c0.35-0.28,0.72-0.54,1.1-0.79
			c0.08-0.05,0.14-0.1,0.21-0.15c0.04-0.03,0.08-0.05,0.12-0.08c0.16-0.09,0.31-0.18,0.47-0.27c0.38-0.21,0.81-0.42,1.28-0.62
			c0.76-0.34,1.64-0.64,2.64-0.86c0.71-0.14,1.67-0.28,2.77-0.28c0.37,0,0.75,0.02,1.15,0.05c0.88,0.08,1.75,0.24,2.6,0.49
			c1.63-4.97,5.94-8.49,11.11-9.11c0.05-0.01,0.1-0.01,0.15-0.02c0.1-0.02,0.2-0.03,0.31-0.03c0.39-0.04,0.79-0.06,1.19-0.06
			c0.2,0,0.41,0.01,0.61,0.02c-0.01-0.01-0.01-0.01-0.01-0.01c0.01,0,0.01,0,0.02,0l-0.01-0.01c0.01,0,0.02,0,0.03,0
			c1.01,0.06,2.26,0.24,3.63,0.69c1.3,0.44,2.54,1.07,3.66,1.89c2.86-1.7,6.11-2.59,9.44-2.59c9.58,0,17.49,7.3,18.45,16.63
			c0,0.02,0,0.03,0,0.05c0.04,0.41,0.05,0.84,0.06,1.26c0.01,0.91-0.03,2.12-0.21,3.46c-0.06,0.34-0.12,0.67-0.19,1
			c-0.1,0.43-0.21,0.87-0.35,1.3l0.02,0.01c-2.23,7.74-9.34,13.42-17.79,13.42c-1.37,0-2.75-0.16-4.12-0.48
			c-2.46,3.9-6.74,6.28-11.38,6.28c-5.65,0-10.63-3.52-12.58-8.71c-1.83,0.89-3.83,1.36-5.88,1.36c-7.42,0-13.45-6.03-13.45-13.45
			c0-4.07,1.82-7.71,4.69-10.17L23.83,44.05z"/>
	</g>
</g>
</svg>
