<?xml version="1.0" encoding="utf-8"?>
<!-- Generator: Adobe Illustrator 25.1.0, SVG Export Plug-In . SVG Version: 6.00 Build 0)  -->
<svg version="1.1" id="Layer_1" xmlns="http://www.w3.org/2000/svg" xmlns:xlink="http://www.w3.org/1999/xlink" x="0px" y="0px"
	 viewBox="0 0 100 100" style="enable-background:new 0 0 100 100;" xml:space="preserve">
<style type="text/css">
	.st0{fill:url(#SVGID_1_);}
	.st1{fill:url(#SVGID_2_);}
</style>
<g>
	<linearGradient id="SVGID_1_" gradientUnits="userSpaceOnUse" x1="39.3453" y1="79.1347" x2="80.6567" y2="37.8233">
		<stop  offset="0" style="stop-color:#5F2C82"/>
		<stop  offset="1" style="stop-color:#49A09D"/>
	</linearGradient>
	<path class="st0" d="M54.95,62.95l0.07-0.5c-0.67,0.06-1.34,0.1-2.01,0.1c-1.65,0-3.26-0.19-4.83-0.53l-0.04,0.31l-3.25,5.38
		l3.82,2.64l-3.82,10.28l10.86-9.62l-5.43-3.31L54.95,62.95z"/>
	<linearGradient id="SVGID_2_" gradientUnits="userSpaceOnUse" x1="27.2532" y1="67.0426" x2="68.5646" y2="25.7312">
		<stop  offset="0" style="stop-color:#5F2C82"/>
		<stop  offset="1" style="stop-color:#49A09D"/>
	</linearGradient>
	<path class="st1" d="M80.62,36.19c0-4.86-3.96-8.82-8.82-8.82c-0.56,0-1.12,0.06-1.69,0.17c-4.33-5.2-10.65-8.17-17.43-8.17
		c-9.72,0-18.46,6.34-21.52,15.51c-6.55,0.31-11.79,5.74-11.79,12.36c0,6.82,5.55,12.38,12.38,12.38c1.82,0,3.62-0.4,5.26-1.17
		c2.45,2.34,5.33,4.05,8.46,5.1l0.43-0.71l0.17-1.21c-3.04-1.02-5.83-2.74-8.15-5.1l-0.53-0.54l-0.67,0.36
		c-1.51,0.83-3.23,1.27-4.97,1.27c-5.72,0-10.38-4.65-10.38-10.38s4.65-10.38,10.37-10.38h0l0.9,0.01l0.21-0.72
		c2.59-8.71,10.74-14.79,19.83-14.79c6.38,0,12.3,2.88,16.26,7.91l0.41,0.52L70,29.62c0.61-0.17,1.22-0.25,1.81-0.25
		c3.76,0,6.82,3.06,6.82,6.82c0,1.36-0.4,2.68-1.16,3.81l-0.44,0.65l0.53,0.58c0.69,0.76,1.07,1.73,1.07,2.73
		c0,2.25-1.83,4.09-4.09,4.09c-0.31,0-0.63-0.05-1.01-0.15l-0.9-0.23l-0.29,0.89c-2.35,7.12-8.29,12.26-15.42,13.73l-0.29,2.1
		C64.47,63.01,71.1,57.61,73.94,50c0.21,0.02,0.4,0.03,0.6,0.03c3.36,0,6.09-2.73,6.09-6.09c0-1.24-0.39-2.46-1.11-3.48
		C80.24,39.17,80.62,37.7,80.62,36.19z"/>
</g>
</svg>
