<?xml version="1.0" encoding="utf-8"?>
<!-- Generator: Adobe Illustrator 25.1.0, SVG Export Plug-In . SVG Version: 6.00 Build 0)  -->
<svg version="1.1" id="Layer_1" xmlns="http://www.w3.org/2000/svg" xmlns:xlink="http://www.w3.org/1999/xlink" x="0px" y="0px"
	 viewBox="0 0 100 100" style="enable-background:new 0 0 100 100;" xml:space="preserve">
<style type="text/css">
	.st0{fill:url(#SVGID_1_);}
</style>
<linearGradient id="SVGID_1_" gradientUnits="userSpaceOnUse" x1="21.2507" y1="50" x2="78.7493" y2="50">
	<stop  offset="0" style="stop-color:#5F2C82"/>
	<stop  offset="1" style="stop-color:#49A09D"/>
</linearGradient>
<polygon class="st0" points="72.39,49 77.37,44.01 75.96,42.6 69.56,49 52.41,49 64.02,37.39 73.26,37.39 73.26,35.39 66.02,35.39 
	71.04,30.38 69.62,28.96 64.96,33.63 64.96,26.77 62.96,26.77 62.96,35.63 51,47.59 51,30.7 57.4,24.3 55.99,22.88 51,27.87 
	51,21.25 49,21.25 49,27.64 44.01,22.66 42.6,24.07 49,30.47 49,47.59 37.71,36.3 37.71,27.45 35.71,27.45 35.71,34.3 30.38,28.96 
	28.96,30.38 34.34,35.76 27.08,35.76 27.08,37.76 36.34,37.76 47.59,49 31.01,49 24.61,42.6 23.2,44.01 28.19,49 21.25,49 21.25,51 
	27.96,51 22.97,55.99 24.39,57.4 30.79,51 47.59,51 36.76,61.83 27.66,61.83 27.66,63.83 34.76,63.83 28.96,69.62 30.38,71.04 
	35.96,65.45 35.96,72.45 37.96,72.45 37.96,63.45 49,52.41 49,69.21 42.6,75.61 44.01,77.03 49,72.04 49,78.75 51,78.75 51,72.26 
	55.99,77.25 57.4,75.84 51,69.44 51,52.41 62.8,64.21 62.8,73.14 64.8,73.14 64.8,66.21 69.62,71.04 71.04,69.62 66.25,64.83 
	73.42,64.83 73.42,62.83 64.25,62.83 52.41,51 69.34,51 75.74,57.4 77.15,55.99 72.16,51 78.75,51 78.75,49 "/>
</svg>
